<svg width="286" height="216" viewBox="0 0 286 216" fill="none" xmlns="http://www.w3.org/2000/svg">
<path opacity="0.3" d="M272.471 170C266.071 180.896 262.536 186.33 258.971 186.33C255.406 186.33 251.87 180.896 245.5 170C251.87 180.896 254.909 186.646 253.127 189.665C251.344 192.684 244.769 193 232 193C245.237 193 251.812 193.316 253.302 196.651C254.705 199.756 251.666 205.478 245.5 216C251.899 205.104 255.435 199.67 259 199.67C262.565 199.67 266.101 205.104 272.5 216C265.721 204.414 262.74 198.664 265.253 195.789C267.474 193.259 274.019 193 286 193C272.5 193 265.925 192.655 264.61 189.119C263.412 185.956 266.451 180.264 272.471 170Z" fill="white"/>
<path opacity="0.3" d="M50 22.8089C40.1926 23.612 34.5578 24.3509 31.0984 26.7924C27.0328 29.6516 26.0699 34.888 25 45.3608C23.8944 34.5025 22.8959 29.2982 18.4379 26.5033C14.9786 24.3188 9.37946 23.612 0 22.841C9.77176 22.0379 15.4422 21.299 18.8659 18.8896C22.9672 15.9983 23.9301 10.794 25 0.289062C25.9986 9.95877 26.8902 15.1309 30.2068 18.1186C33.5235 21.1062 39.301 21.9415 50 22.8089Z" fill="white"/>
</svg>
