<svg width="646" height="582" viewBox="0 0 646 582" fill="none" xmlns="http://www.w3.org/2000/svg">
<g clip-path="url(#clip0_1387_62008)">
<g opacity="0.5">
<path opacity="0.0344828" d="M129.929 338.64C134.837 344.488 142.235 348.114 151.96 349.573C161.695 351.033 173.698 350.31 187.696 347.513C215.69 341.917 251.455 328.064 292.573 307.146C374.795 265.317 478.223 195.345 583.348 107.134C688.473 18.9242 775.342 -70.7815 830.813 -144.491C858.553 -181.352 878.407 -214.168 888.778 -240.766C893.964 -254.065 896.76 -265.76 897.012 -275.6C897.265 -285.432 894.979 -293.347 890.072 -299.195C885.164 -305.043 877.766 -308.669 868.041 -310.127C858.306 -311.587 846.303 -310.865 832.305 -308.067C804.311 -302.472 768.546 -288.619 727.428 -267.701C645.206 -225.872 541.778 -155.899 436.653 -67.6892C331.528 20.5211 244.659 110.227 189.188 183.936C161.448 220.797 141.594 253.613 131.223 280.211C126.037 293.51 123.241 305.206 122.989 315.045C122.736 324.877 125.022 332.792 129.929 338.64Z" stroke="#2B2C3B" stroke-width="2"/>
<path opacity="0.0689655" d="M159.172 374.517C164.571 379.916 172.256 382.883 182.072 383.488C191.897 384.094 203.791 382.329 217.492 378.321C244.892 370.307 279.314 353.39 318.452 328.968C396.716 280.132 493.651 201.411 590.688 104.375C687.725 7.33776 766.446 -89.5977 815.281 -167.861C839.703 -207 856.621 -241.421 864.635 -268.822C868.642 -282.522 870.408 -294.417 869.802 -304.241C869.196 -314.057 866.229 -321.743 860.831 -327.141C855.433 -332.54 847.747 -335.507 837.931 -336.112C828.107 -336.718 816.212 -334.952 802.511 -330.945C775.111 -322.931 740.69 -306.014 701.551 -281.591C623.287 -232.756 526.352 -154.035 429.315 -56.9986C332.278 40.0383 253.558 136.974 204.722 215.237C180.3 254.376 163.382 288.797 155.368 316.198C151.361 329.898 149.596 341.793 150.202 351.617C150.807 361.433 153.774 369.119 159.172 374.517Z" stroke="#2B2C3B" stroke-width="2"/>
<path opacity="0.103448" d="M191.083 407.727C196.931 412.634 204.846 414.919 214.678 414.667C224.517 414.415 236.213 411.619 249.512 406.433C276.11 396.061 308.926 376.208 345.787 348.468C419.496 292.997 509.202 206.128 597.412 101.003C685.622 -4.12229 755.595 -107.55 797.424 -189.772C818.341 -230.89 832.195 -266.655 837.79 -294.65C840.588 -308.647 841.31 -320.651 839.85 -330.385C838.392 -340.111 834.766 -347.509 828.918 -352.416C823.07 -357.323 815.155 -359.609 805.323 -359.356C795.483 -359.104 783.788 -356.308 770.489 -351.122C743.891 -340.751 711.075 -320.897 674.214 -293.157C600.504 -237.686 510.799 -150.817 422.588 -45.6919C334.378 59.433 264.406 162.861 222.577 245.083C201.659 286.201 187.806 321.966 182.21 349.96C179.413 363.958 178.69 375.961 180.15 385.695C181.609 395.421 185.235 402.819 191.083 407.727Z" stroke="#2B2C3B" stroke-width="2"/>
<path opacity="0.137931" d="M225.42 438.05C231.673 442.429 239.757 444.016 249.529 442.908C259.31 441.799 270.717 437.995 283.514 431.669C309.106 419.019 340.067 396.381 374.37 365.534C442.965 303.85 524.758 209.493 603.47 97.0797C682.182 -15.3332 742.874 -124.466 777.378 -210.02C794.632 -252.805 805.316 -289.641 808.45 -318.017C810.017 -332.206 809.691 -344.226 807.388 -353.796C805.087 -363.358 800.83 -370.412 794.577 -374.79C788.323 -379.169 780.239 -380.756 770.467 -379.648C760.686 -378.539 749.279 -374.735 736.483 -368.409C710.89 -355.759 679.929 -333.121 645.626 -302.274C577.032 -240.59 495.239 -146.233 416.526 -33.8197C337.814 78.5932 277.122 187.726 242.619 273.28C225.364 316.065 214.681 352.901 211.546 381.277C209.979 395.466 210.306 407.486 212.609 417.056C214.909 426.618 219.166 433.672 225.42 438.05Z" stroke="#2B2C3B" stroke-width="2"/>
<path opacity="0.172414" d="M261.926 465.273C268.537 469.09 276.729 469.967 286.367 468.011C296.014 466.054 307.046 461.27 319.243 453.853C343.635 439.02 372.505 413.77 403.989 380.05C466.946 312.623 540.204 211.496 608.82 92.6506C677.435 -26.1948 728.385 -140.202 755.3 -228.438C768.76 -272.564 776.193 -310.191 776.842 -338.732C777.166 -353.003 775.793 -364.949 772.665 -374.282C769.54 -383.607 764.685 -390.263 758.073 -394.08C751.462 -397.897 743.27 -398.774 733.632 -396.818C723.985 -394.861 712.953 -390.077 700.756 -382.66C676.364 -367.827 647.494 -342.577 616.01 -308.857C553.052 -241.43 479.794 -140.303 411.179 -21.4575C342.564 97.3879 291.614 211.395 264.699 299.631C251.239 343.757 243.806 381.384 243.157 409.925C242.832 424.196 244.205 436.142 247.334 445.475C250.459 454.8 255.314 461.456 261.926 465.273Z" stroke="#2B2C3B" stroke-width="2"/>
<path opacity="0.206897" d="M300.32 489.23C307.239 492.456 315.476 492.615 324.907 489.827C334.346 487.036 344.92 481.309 356.423 472.858C379.431 455.955 405.99 428.285 434.415 391.95C491.256 319.292 555.422 212.165 613.418 87.7913C671.414 -36.5821 712.234 -154.596 731.356 -244.842C740.919 -289.973 745.044 -328.105 743.203 -356.594C742.283 -370.839 739.874 -382.62 735.944 -391.644C732.018 -400.661 726.601 -406.869 719.682 -410.095C712.763 -413.322 704.526 -413.481 695.095 -410.693C685.656 -407.902 675.082 -402.175 663.578 -393.723C640.571 -376.821 614.012 -349.151 585.587 -312.815C528.746 -240.157 464.58 -133.03 406.584 -8.657C348.588 115.716 307.768 233.73 288.646 323.976C279.083 369.107 274.958 407.239 276.799 435.728C277.719 449.973 280.128 461.754 284.058 470.779C287.984 479.796 293.401 486.003 300.32 489.23Z" stroke="#2B2C3B" stroke-width="2"/>
<path opacity="0.241379" d="M340.306 509.762C347.48 512.373 355.7 511.813 364.852 508.214C374.012 504.611 384.046 497.984 394.77 488.562C416.216 469.719 440.262 439.839 465.413 401.165C515.705 323.829 570.29 211.517 617.225 82.5625C664.161 -46.3923 694.54 -167.514 705.724 -259.084C711.317 -304.877 712.103 -343.223 707.786 -371.443C705.627 -385.554 702.201 -397.08 697.5 -405.728C692.802 -414.368 686.865 -420.08 679.691 -422.691C672.517 -425.302 664.298 -424.743 655.146 -421.143C645.986 -417.541 635.952 -410.913 625.228 -401.492C603.782 -382.648 579.735 -352.769 554.585 -314.094C504.293 -236.759 449.708 -124.447 402.772 4.50802C355.837 133.463 325.458 254.585 314.274 346.154C308.681 391.947 307.895 430.293 312.212 458.514C314.37 472.624 317.797 484.15 322.498 492.798C327.195 501.439 333.132 507.15 340.306 509.762Z" stroke="#2B2C3B" stroke-width="2"/>
<path opacity="0.275862" d="M381.586 526.742C388.961 528.718 397.1 527.444 405.904 523.061C414.715 518.673 424.133 511.197 433.995 500.876C453.717 480.236 475.068 448.374 496.752 407.654C540.113 326.23 584.701 209.588 620.219 77.0333C655.737 -55.5215 675.443 -178.83 678.604 -271.026C680.185 -317.132 677.625 -355.401 670.866 -383.137C667.486 -397.006 663.067 -408.19 657.63 -416.395C652.198 -424.593 645.786 -429.766 638.411 -431.742C631.037 -433.718 622.898 -432.444 614.094 -428.061C605.283 -423.673 595.865 -416.197 586.003 -405.876C566.281 -385.236 544.93 -353.374 523.246 -312.654C479.885 -231.23 435.297 -114.588 399.779 17.9666C364.261 150.521 344.555 273.83 341.394 366.026C339.813 412.132 342.372 450.401 349.132 478.137C352.512 492.006 356.93 503.19 362.368 511.395C367.8 519.593 374.212 524.766 381.586 526.742Z" stroke="#2B2C3B" stroke-width="2"/>
<path opacity="0.310345" d="M423.844 540.084C431.362 541.41 439.36 539.432 447.748 534.297C456.143 529.159 464.874 520.89 473.799 509.749C491.647 487.468 510.14 453.867 528.192 411.412C564.291 326.519 598.544 206.434 622.374 71.2885C646.204 -63.8575 655.088 -188.415 650.201 -280.535C647.758 -326.604 641.873 -364.504 632.721 -391.545C628.145 -405.067 622.769 -415.823 616.638 -423.523C610.511 -431.216 603.673 -435.811 596.154 -437.136C588.636 -438.462 580.638 -436.484 572.25 -431.35C563.855 -426.211 555.124 -417.942 546.2 -406.801C528.351 -384.52 509.859 -350.919 491.806 -308.465C455.707 -223.571 421.455 -103.487 397.625 31.6592C373.795 166.805 364.911 291.362 369.797 383.483C372.241 429.551 378.126 467.451 387.277 494.493C391.853 508.014 397.229 518.771 403.361 526.471C409.487 534.164 416.326 538.758 423.844 540.084Z" stroke="#2B2C3B" stroke-width="2"/>
<path opacity="0.344828" d="M466.759 549.704C474.364 550.37 482.159 547.702 490.068 541.856C497.983 536.005 505.96 527.007 513.879 515.131C529.718 491.379 545.212 456.294 559.496 412.428C588.058 324.711 611.714 202.098 623.675 65.3896C635.635 -71.319 633.63 -196.177 620.733 -287.521C614.284 -333.201 605.118 -370.444 593.644 -396.585C587.907 -409.656 581.614 -419.903 574.835 -427.039C568.061 -434.169 560.848 -438.15 553.243 -438.815C545.638 -439.481 537.843 -436.813 529.934 -430.967C522.019 -425.117 514.042 -416.118 506.122 -404.242C490.284 -380.49 474.79 -345.405 460.506 -301.539C431.944 -213.822 408.288 -91.2093 396.327 45.4993C384.367 182.208 386.372 307.065 399.269 398.41C405.718 444.09 414.884 481.332 426.358 507.474C432.095 520.545 438.388 530.792 445.167 537.928C451.94 545.058 459.154 549.039 466.759 549.704Z" stroke="#2B2C3B" stroke-width="2"/>
<path opacity="0.37931" d="M509.999 555.561C517.633 555.561 525.166 552.224 532.535 545.711C539.91 539.193 547.072 529.534 553.927 517.012C567.635 491.971 580.012 455.668 590.418 410.724C611.227 320.852 624.107 196.644 624.107 59.4133C624.107 -77.8175 611.227 -202.025 590.418 -291.898C580.012 -336.842 567.635 -373.144 553.927 -398.186C547.072 -410.707 539.91 -420.366 532.535 -426.885C525.166 -433.398 517.633 -436.734 509.999 -436.734C502.364 -436.734 494.832 -433.398 487.463 -426.885C480.087 -420.366 472.925 -410.707 466.071 -398.186C452.362 -373.144 439.985 -336.842 429.579 -291.898C408.77 -202.025 395.891 -77.8175 395.891 59.4133C395.891 196.644 408.77 320.852 429.579 410.724C439.985 455.668 452.362 491.971 466.071 517.012C472.925 529.534 480.087 539.193 487.463 545.711C494.832 552.224 502.364 555.561 509.999 555.561Z" stroke="#2B2C3B" stroke-width="2"/>
<path opacity="0.413793" d="M553.241 557.64C560.847 556.974 568.06 552.994 574.833 545.863C581.613 538.727 587.906 528.48 593.643 515.409C605.116 489.268 614.282 452.025 620.732 406.345C633.628 315.001 635.634 190.143 623.673 53.4346C611.713 -83.274 588.056 -205.886 559.494 -293.603C545.21 -337.47 529.716 -372.555 513.878 -396.307C505.958 -408.183 497.981 -417.181 490.066 -423.032C482.157 -428.878 474.362 -431.545 466.757 -430.88C459.152 -430.215 451.939 -426.234 445.165 -419.104C438.386 -411.967 432.093 -401.721 426.356 -388.649C414.882 -362.508 405.717 -325.265 399.267 -279.585C386.37 -188.241 384.365 -63.3836 396.325 73.325C408.286 210.034 431.942 332.646 460.505 420.363C474.788 464.229 490.282 499.314 506.121 523.066C514.04 534.943 522.017 543.941 529.933 549.792C537.841 555.637 545.636 558.305 553.241 557.64Z" stroke="#2B2C3B" stroke-width="2"/>
<path opacity="0.448276" d="M596.156 555.959C603.674 554.633 610.513 550.039 616.639 542.346C622.771 534.646 628.147 523.889 632.723 510.368C641.874 483.326 647.759 445.426 650.203 399.358C655.089 307.237 646.205 182.68 622.375 47.5341C598.545 -87.6118 564.293 -207.696 528.194 -292.59C510.141 -335.044 491.649 -368.646 473.8 -390.926C464.875 -402.067 456.145 -410.336 447.749 -415.475C439.361 -420.609 431.364 -422.587 423.845 -421.261C416.327 -419.936 409.488 -415.341 403.362 -407.648C397.231 -399.948 391.855 -389.192 387.279 -375.67C378.127 -348.629 372.242 -310.729 369.798 -264.66C364.912 -172.54 373.796 -47.9825 397.626 87.1634C421.456 222.309 455.709 342.394 491.807 427.287C509.86 469.742 528.353 503.343 546.201 525.624C555.126 536.765 563.856 545.034 572.252 550.172C580.64 555.306 588.637 557.285 596.156 555.959Z" stroke="#2B2C3B" stroke-width="2"/>
<path opacity="0.482759" d="M638.414 550.564C645.788 548.588 652.201 543.415 657.633 535.217C663.07 527.012 667.488 515.828 670.868 501.959C677.628 474.223 680.188 435.954 678.607 389.848C675.446 297.652 655.74 174.343 620.222 41.7886C584.704 -90.7662 540.115 -207.408 496.755 -288.833C475.071 -329.552 453.72 -361.414 433.998 -382.054C424.136 -392.375 414.718 -399.851 405.907 -404.239C397.103 -408.622 388.963 -409.896 381.589 -407.92C374.215 -405.944 367.803 -400.771 362.37 -392.573C356.933 -384.368 352.515 -373.184 349.135 -359.316C342.375 -331.579 339.816 -293.31 341.396 -247.204C344.557 -155.008 364.264 -31.6996 399.782 100.855C435.3 233.41 479.888 350.052 523.248 431.476C544.932 472.196 566.283 504.058 586.006 524.698C595.867 535.019 605.286 542.495 614.097 546.883C622.9 551.266 631.04 552.54 638.414 550.564Z" stroke="#2B2C3B" stroke-width="2"/>
<path opacity="0.517241" d="M679.694 541.515C686.868 538.904 692.805 533.192 697.502 524.552C702.203 515.904 705.63 504.378 707.789 490.267C712.105 462.047 711.32 423.701 705.726 377.908C694.542 286.339 664.164 165.216 617.228 36.2617C570.292 -92.6931 515.708 -205.005 465.416 -282.34C440.265 -321.015 416.219 -350.895 394.772 -369.738C384.049 -379.16 374.015 -385.787 364.855 -389.39C355.702 -392.989 347.483 -393.548 340.309 -390.937C333.135 -388.326 327.198 -382.614 322.501 -373.974C317.8 -365.326 314.373 -353.8 312.214 -339.689C307.898 -311.469 308.683 -273.123 314.277 -227.33C325.461 -135.761 355.839 -14.6386 402.775 114.316C449.711 243.271 504.295 355.583 554.587 432.918C579.738 471.593 603.784 501.473 625.231 520.316C635.954 529.738 645.988 536.365 655.148 539.967C664.301 543.567 672.52 544.126 679.694 541.515Z" stroke="#2B2C3B" stroke-width="2"/>
<path opacity="0.551724" d="M719.682 528.921C726.601 525.694 732.018 519.487 735.944 510.47C739.874 501.445 742.283 489.664 743.203 475.419C745.044 446.93 740.919 408.798 731.356 363.667C712.234 273.421 671.414 155.407 613.418 31.0339C555.422 -93.3395 491.257 -200.467 434.416 -273.125C405.99 -309.46 379.431 -337.13 356.424 -354.033C344.92 -362.484 334.347 -368.211 324.907 -371.002C315.476 -373.79 307.239 -373.631 300.32 -370.405C293.401 -367.178 287.984 -360.971 284.058 -351.954C280.129 -342.929 277.72 -331.148 276.799 -316.903C274.958 -288.414 279.083 -250.282 288.646 -205.151C307.769 -114.905 348.588 3.10879 406.584 127.482C464.58 251.855 528.746 358.983 585.587 431.641C614.012 467.976 640.572 495.646 663.579 512.548C675.083 521 685.656 526.727 695.095 529.518C704.526 532.306 712.763 532.147 719.682 528.921Z" stroke="#2B2C3B" stroke-width="2"/>
<path opacity="0.586207" d="M758.072 512.907C764.684 509.09 769.539 502.434 772.664 493.109C775.793 483.776 777.166 471.83 776.841 457.559C776.192 429.018 768.759 391.391 755.299 347.265C728.384 259.029 677.434 145.022 608.819 26.1766C540.204 -92.6687 466.946 -193.796 403.988 -261.223C372.504 -294.943 343.634 -320.193 319.242 -335.026C307.045 -342.442 296.013 -347.227 286.366 -349.184C276.728 -351.14 268.536 -350.263 261.925 -346.446C255.313 -342.629 250.458 -335.973 247.333 -326.648C244.205 -317.315 242.832 -305.369 243.156 -291.098C243.805 -262.557 251.238 -224.93 264.698 -180.804C291.613 -92.5676 342.563 21.4393 411.178 140.285C479.794 259.13 553.052 360.257 616.009 427.685C647.493 461.404 676.363 486.654 700.755 501.487C712.952 508.904 723.984 513.688 733.631 515.645C743.269 517.601 751.461 516.724 758.072 512.907Z" stroke="#2B2C3B" stroke-width="2"/>
<path opacity="0.62069" d="M794.58 493.613C800.834 489.234 805.091 482.181 807.391 472.619C809.694 463.049 810.021 451.028 808.454 436.84C805.319 408.464 794.636 371.628 777.381 328.843C742.878 243.289 682.186 134.156 603.474 21.7431C524.761 -90.6697 442.968 -185.027 374.374 -246.711C340.071 -277.558 309.11 -300.196 283.517 -312.847C270.721 -319.172 259.313 -322.976 249.533 -324.085C239.761 -325.194 231.677 -323.606 225.423 -319.228C219.17 -314.849 214.913 -307.795 212.612 -298.233C210.309 -288.663 209.983 -276.643 211.55 -262.454C214.684 -234.079 225.368 -197.242 242.622 -154.458C277.126 -68.9029 337.818 40.2296 416.53 152.643C495.242 265.055 577.035 359.413 645.63 421.097C679.933 451.944 710.894 474.582 736.486 487.232C749.283 493.558 760.69 497.362 770.47 498.471C780.242 499.579 788.327 497.992 794.58 493.613Z" stroke="#2B2C3B" stroke-width="2"/>
<path opacity="0.655172" d="M828.918 471.239C834.766 466.331 838.391 458.933 839.85 449.208C841.31 439.473 840.588 427.47 837.79 413.472C832.194 385.478 818.341 349.713 797.423 308.595C755.595 226.373 685.622 122.945 597.412 17.8203C509.202 -87.3046 419.496 -174.174 345.787 -229.645C308.925 -257.385 276.109 -277.239 249.512 -287.61C236.212 -292.796 224.517 -295.592 214.677 -295.844C204.846 -296.097 196.931 -293.811 191.082 -288.904C185.234 -283.996 181.609 -276.598 180.15 -266.873C178.69 -257.138 179.412 -245.135 182.21 -231.137C187.805 -203.143 201.659 -167.378 222.577 -126.26C264.405 -44.0377 334.378 59.3898 422.588 164.515C510.798 269.64 600.504 356.509 674.213 411.98C711.075 439.72 743.89 459.574 770.488 469.945C783.788 475.131 795.483 477.927 805.323 478.179C815.154 478.432 823.069 476.146 828.918 471.239Z" stroke="#2B2C3B" stroke-width="2"/>
<path opacity="0.689655" d="M860.83 445.964C866.228 440.566 869.195 432.88 869.801 423.064C870.407 413.24 868.641 401.345 864.634 387.645C856.62 360.244 839.702 325.823 815.28 286.684C766.445 208.421 687.724 111.485 590.687 14.4484C493.65 -82.5884 396.715 -161.309 318.451 -210.144C279.313 -234.567 244.891 -251.484 217.491 -259.498C203.79 -263.505 191.896 -265.271 182.071 -264.665C172.255 -264.06 164.569 -261.093 159.171 -255.694C153.773 -250.296 150.806 -242.61 150.2 -232.794C149.594 -222.97 151.36 -211.075 155.367 -197.375C163.381 -169.974 180.299 -135.553 204.721 -96.4142C253.556 -18.1507 332.277 78.7848 429.314 175.822C526.351 272.858 623.286 351.579 701.55 400.415C740.688 424.837 775.11 441.754 802.51 449.768C816.211 453.776 828.105 455.541 837.93 454.935C847.746 454.33 855.432 451.363 860.83 445.964Z" stroke="#2B2C3B" stroke-width="2"/>
<path opacity="0.724138" d="M890.07 418.019C894.978 412.171 897.263 404.255 897.011 394.424C896.758 384.584 893.963 372.889 888.777 359.589C878.405 332.992 858.552 300.176 830.812 263.315C775.341 189.605 688.471 99.8997 583.346 11.6894C478.221 -76.5209 374.794 -146.494 292.572 -188.322C251.454 -209.24 215.689 -223.093 187.694 -228.689C173.696 -231.487 161.693 -232.209 151.959 -230.749C142.233 -229.29 134.835 -225.665 129.928 -219.816C125.021 -213.968 122.735 -206.053 122.987 -196.222C123.24 -186.382 126.035 -174.686 131.221 -161.387C141.593 -134.789 161.446 -101.973 189.187 -65.1122C244.657 8.59716 331.527 98.3028 436.652 186.513C541.777 274.723 645.204 344.696 727.426 386.524C768.545 407.442 804.309 421.296 832.304 426.891C846.302 429.689 858.305 430.411 868.039 428.951C877.765 427.493 885.163 423.867 890.07 418.019Z" stroke="#2B2C3B" stroke-width="2"/>
<path opacity="0.758621" d="M916.421 387.651C920.8 381.397 922.388 373.313 921.279 363.541C920.17 353.76 916.366 342.353 910.04 329.556C897.39 303.964 874.752 273.003 843.905 238.7C782.221 170.106 687.864 88.3127 575.451 9.6003C463.038 -69.1121 353.905 -129.804 268.351 -164.307C225.566 -181.562 188.73 -192.245 160.354 -195.38C146.165 -196.947 134.145 -196.62 124.575 -194.317C115.013 -192.017 107.96 -187.76 103.581 -181.506C99.2019 -175.253 97.6147 -167.169 98.7228 -157.397C99.832 -147.616 103.636 -136.209 109.962 -123.412C122.612 -97.8197 145.25 -66.859 176.097 -32.5558C237.781 36.0385 332.139 117.832 444.551 196.544C556.964 275.256 666.097 335.948 751.651 370.452C794.436 387.706 831.272 398.39 859.648 401.524C873.837 403.091 885.857 402.765 895.427 400.462C904.989 398.161 912.043 393.904 916.421 387.651Z" stroke="#2B2C3B" stroke-width="2"/>
<path opacity="0.793103" d="M939.675 355.117C943.493 348.506 944.369 340.314 942.413 330.676C940.456 321.029 935.672 309.997 928.255 297.8C913.423 273.408 888.173 244.538 854.453 213.054C787.025 150.097 685.898 76.8385 567.053 8.22313C448.208 -60.3923 334.201 -111.342 245.964 -138.257C201.838 -151.717 164.211 -159.15 135.67 -159.799C121.399 -160.123 109.453 -158.75 100.12 -155.622C90.7956 -152.497 84.1395 -147.642 80.3224 -141.03C76.5053 -134.419 75.6287 -126.227 77.5843 -116.589C79.5417 -106.942 84.3257 -95.9099 91.7423 -83.7132C106.575 -59.3206 131.825 -30.4508 165.545 1.03342C232.972 63.9906 334.099 137.249 452.945 205.864C571.79 274.479 685.797 325.429 774.033 352.344C818.159 365.804 855.786 373.237 884.327 373.886C898.598 374.211 910.545 372.838 919.877 369.709C929.202 366.584 935.858 361.729 939.675 355.117Z" stroke="#2B2C3B" stroke-width="2"/>
<path opacity="0.827586" d="M959.663 320.696C962.89 313.777 963.049 305.54 960.261 296.109C957.47 286.669 951.743 276.096 943.291 264.592C926.389 241.585 898.719 215.026 862.383 186.6C789.725 129.759 682.598 65.594 558.225 7.59773C433.852 -50.3985 315.838 -91.2179 225.592 -110.34C180.46 -119.903 142.329 -124.028 113.84 -122.187C99.5949 -121.267 87.8137 -118.858 78.7891 -114.928C69.7722 -111.002 63.5646 -105.585 60.3382 -98.6663C57.1118 -91.7473 56.9526 -83.5102 59.7408 -74.0791C62.5314 -64.6399 68.2588 -54.0666 76.7102 -42.5627C93.6125 -19.5556 121.283 7.00359 157.618 35.4291C230.276 92.27 337.403 156.436 461.777 214.432C586.15 272.428 704.164 313.247 794.41 332.37C839.541 341.933 877.673 346.058 906.162 344.217C920.407 343.296 932.188 340.887 941.212 336.958C950.229 333.032 956.437 327.615 959.663 320.696Z" stroke="#2B2C3B" stroke-width="2"/>
<path opacity="0.862069" d="M976.226 284.67C978.838 277.496 978.278 269.277 974.679 260.125C971.076 250.964 964.449 240.931 955.027 230.207C936.184 208.761 906.304 184.714 867.629 159.564C790.294 109.272 677.982 54.6869 549.027 7.75123C420.073 -39.1845 298.95 -69.5629 207.381 -80.7473C161.588 -86.3404 123.242 -87.1261 95.0218 -82.8093C80.9113 -80.6509 69.3849 -77.2242 60.7372 -72.523C52.0968 -67.8258 46.3849 -61.8887 43.7738 -54.7148C41.1627 -47.5409 41.722 -39.3213 45.3216 -30.1691C48.9243 -21.009 55.5514 -10.9751 64.9733 -0.251532C83.8164 21.1948 113.696 45.2414 152.371 70.3919C229.706 120.684 342.018 175.269 470.973 222.204C599.928 269.14 721.05 299.518 812.619 310.703C858.412 316.296 896.758 317.081 924.978 312.765C939.089 310.606 950.615 307.18 959.263 302.478C967.903 297.781 973.615 291.844 976.226 284.67Z" stroke="#2B2C3B" stroke-width="2"/>
<path opacity="0.896552" d="M989.242 247.359C991.218 239.985 989.944 231.845 985.561 223.041C981.173 214.23 973.697 204.812 963.376 194.951C942.736 175.228 910.874 153.877 870.154 132.193C788.73 88.8327 672.088 44.2444 539.533 8.72648C406.979 -26.7915 283.67 -46.4978 191.474 -49.6588C145.368 -51.2396 107.099 -48.6801 79.3625 -41.9203C65.4938 -38.5402 54.3099 -34.122 46.1048 -28.685C37.9067 -23.2526 32.734 -16.8402 30.7581 -9.46608C28.7822 -2.09193 30.0557 6.04765 34.4393 14.8513C38.8266 23.6625 46.303 33.0807 56.6237 42.9423C77.2642 62.6647 109.126 84.0156 149.846 105.7C231.27 149.06 347.912 193.648 480.467 229.166C613.021 264.684 736.33 284.391 828.526 287.552C874.632 289.132 912.901 286.573 940.637 279.813C954.506 276.433 965.69 272.015 973.895 266.578C982.093 261.145 987.266 254.733 989.242 247.359Z" stroke="#2B2C3B" stroke-width="2"/>
<path opacity="0.931035" d="M998.611 209.074C999.937 201.556 997.959 193.558 992.825 185.17C987.686 176.775 979.417 168.044 968.276 159.119C945.995 141.271 912.394 122.778 869.94 104.726C785.046 68.6267 664.962 34.3741 529.816 10.5442C394.67 -13.2857 270.113 -22.17 177.992 -17.2835C131.924 -14.8398 94.0238 -8.95481 66.982 0.196738C53.4606 4.77266 42.7044 10.1487 35.0044 16.2802C27.3109 22.4065 22.7168 29.2453 21.3911 36.7636C20.0654 44.2819 22.0435 52.2795 27.1777 60.6676C32.3162 69.0629 40.585 77.7936 51.7259 86.7182C74.0069 104.567 107.608 123.059 150.063 141.112C234.956 177.211 355.041 211.463 490.187 235.293C625.332 259.123 749.89 268.007 842.01 263.121C888.079 260.677 925.979 254.792 953.02 245.641C966.542 241.065 977.298 235.689 984.998 229.557C992.691 223.431 997.286 216.592 998.611 209.074Z" stroke="#2B2C3B" stroke-width="2"/>
<path opacity="0.965517" d="M1004.26 170.132C1004.92 162.527 1002.26 154.732 996.411 146.823C990.56 138.908 981.562 130.931 969.686 123.011C945.934 107.173 910.849 91.6788 866.982 77.3951C779.265 48.8325 656.653 25.1763 519.944 13.2159C383.236 1.25543 258.378 3.26081 167.034 16.1575C121.354 22.607 84.1111 31.7728 57.9699 43.2464C44.8987 48.9834 34.652 55.2765 27.5157 62.0557C20.3855 68.8292 16.4048 76.0424 15.7395 83.6476C15.0741 91.2528 17.7417 99.0476 23.5874 106.956C29.4381 114.872 38.4364 122.849 50.3127 130.768C74.0645 146.607 109.15 162.101 153.016 176.384C240.733 204.947 363.345 228.603 500.054 240.564C636.763 252.524 761.62 250.519 852.964 237.622C898.644 231.172 935.887 222.007 962.028 210.533C975.1 204.796 985.346 198.503 992.483 191.724C999.613 184.95 1003.59 177.737 1004.26 170.132Z" stroke="#2B2C3B" stroke-width="2"/>
<path d="M1006.15 130.857C1006.15 123.223 1002.81 115.69 996.297 108.321C989.779 100.945 980.12 93.7831 967.598 86.9287C942.557 73.2205 906.254 60.8436 861.31 50.4373C771.438 29.6286 647.23 16.7487 509.999 16.7487C372.768 16.7487 248.561 29.6286 158.688 50.4373C113.744 60.8436 77.4419 73.2205 52.4001 86.9287C39.8787 93.7831 30.2195 100.945 23.7011 108.321C17.1884 115.69 13.8516 123.223 13.8516 130.857C13.8516 138.491 17.1884 146.024 23.7011 153.393C30.2195 160.768 39.8787 167.93 52.4001 174.785C77.4419 188.493 113.744 200.87 158.688 211.276C248.561 232.085 372.768 244.965 509.999 244.965C647.23 244.965 771.438 232.085 861.31 211.276C906.254 200.87 942.557 188.493 967.598 174.785C980.12 167.93 989.779 160.768 996.297 153.393C1002.81 146.024 1006.15 138.491 1006.15 130.857Z" stroke="#2B2C3B" stroke-width="2"/>
</g>
<g filter="url(#filter0_f_1387_62008)">
<path d="M530.492 118.401C578.008 99.0604 596.284 44.665 615.625 92.1818C634.965 139.698 541.499 266.778 493.982 286.119C446.465 305.46 462.892 209.737 443.552 162.22C424.211 114.703 482.975 137.741 530.492 118.401Z" fill="url(#paint0_linear_1387_62008)"/>
</g>
</g>
<defs>
<filter id="filter0_f_1387_62008" x="229.77" y="-136.789" width="598.453" height="635.453" filterUnits="userSpaceOnUse" color-interpolation-filters="sRGB">
<feFlood flood-opacity="0" result="BackgroundImageFix"/>
<feBlend mode="normal" in="SourceGraphic" in2="BackgroundImageFix" result="shape"/>
<feGaussianBlur stdDeviation="105" result="effect1_foregroundBlur_1387_62008"/>
</filter>
<linearGradient id="paint0_linear_1387_62008" x1="472.863" y1="294.715" x2="423.488" y2="120.915" gradientUnits="userSpaceOnUse">
<stop stop-color="#6DDCFF"/>
<stop offset="1" stop-color="#7F60F9"/>
</linearGradient>
<clipPath id="clip0_1387_62008">
<rect width="646" height="582" fill="white"/>
</clipPath>
</defs>
</svg>
