<svg width="638" height="1038" viewBox="0 0 638 1038" fill="none" xmlns="http://www.w3.org/2000/svg">
<g clip-path="url(#clip0_1387_62009)">
<g clip-path="url(#clip1_1387_62009)">
<g opacity="0.5">
<path opacity="0.0344828" d="M-249.071 801.64C-244.163 807.488 -236.765 811.114 -227.04 812.573C-217.305 814.033 -205.302 813.31 -191.304 810.513C-163.31 804.917 -127.545 791.064 -86.4267 770.146C-4.20473 728.317 99.2228 658.345 204.348 570.134C309.473 481.924 396.342 392.219 451.813 318.509C479.553 281.648 499.407 248.832 509.778 222.234C514.964 208.935 517.76 197.24 518.012 187.4C518.265 177.568 515.979 169.653 511.072 163.805C506.164 157.957 498.766 154.331 489.041 152.873C479.306 151.413 467.303 152.135 453.305 154.933C425.311 160.528 389.546 174.381 348.428 195.299C266.206 237.128 162.778 307.101 57.6532 395.311C-47.4717 483.521 -134.341 573.227 -189.812 646.936C-217.552 683.797 -237.406 716.613 -247.777 743.211C-252.963 756.51 -255.759 768.206 -256.011 778.045C-256.264 787.877 -253.978 795.792 -249.071 801.64Z" stroke="#2B2C3B" stroke-width="2"/>
<path opacity="0.0689655" d="M-219.828 837.517C-214.429 842.916 -206.744 845.883 -196.928 846.488C-187.103 847.094 -175.209 845.329 -161.508 841.321C-134.108 833.307 -99.6862 816.39 -60.5475 791.968C17.716 743.132 114.651 664.411 211.688 567.375C308.725 470.338 387.446 373.402 436.281 295.139C460.703 256 477.621 221.579 485.635 194.178C489.642 180.478 491.408 168.583 490.802 158.759C490.196 148.943 487.229 141.257 481.831 135.859C476.433 130.46 468.747 127.493 458.931 126.888C449.107 126.282 437.212 128.048 423.511 132.055C396.111 140.069 361.69 156.986 322.551 181.409C244.287 230.244 147.352 308.965 50.3151 406.001C-46.7217 503.038 -125.442 599.974 -174.278 678.237C-198.7 717.376 -215.618 751.797 -223.632 779.198C-227.639 792.898 -229.404 804.793 -228.798 814.617C-228.193 824.433 -225.226 832.119 -219.828 837.517Z" stroke="#2B2C3B" stroke-width="2"/>
<path opacity="0.103448" d="M-187.917 870.727C-182.069 875.634 -174.154 877.919 -164.322 877.667C-154.483 877.415 -142.787 874.619 -129.488 869.433C-102.89 859.061 -70.0744 839.208 -33.2131 811.468C40.4962 755.997 130.202 669.128 218.412 564.003C306.622 458.878 376.595 355.45 418.424 273.228C439.341 232.11 453.195 196.345 458.79 168.35C461.588 154.353 462.31 142.349 460.85 132.615C459.392 122.889 455.766 115.491 449.918 110.584C444.07 105.677 436.155 103.391 426.323 103.644C416.483 103.896 404.788 106.692 391.489 111.878C364.891 122.249 332.075 142.103 295.214 169.843C221.504 225.314 131.799 312.183 43.5885 417.308C-44.6218 522.433 -114.594 625.861 -156.423 708.083C-177.341 749.201 -191.194 784.966 -196.79 812.96C-199.587 826.958 -200.31 838.961 -198.85 848.695C-197.391 858.421 -193.765 865.819 -187.917 870.727Z" stroke="#2B2C3B" stroke-width="2"/>
<path opacity="0.137931" d="M-153.58 901.05C-147.327 905.429 -139.243 907.016 -129.471 905.908C-119.69 904.799 -108.283 900.995 -95.4862 894.669C-69.8936 882.019 -38.933 859.381 -4.62976 828.534C63.9646 766.85 145.758 672.493 224.47 560.08C303.182 447.667 363.874 338.534 398.378 252.98C415.632 210.195 426.316 173.359 429.45 144.983C431.017 130.794 430.691 118.774 428.388 109.204C426.087 99.6423 421.83 92.5885 415.577 88.2096C409.323 83.8308 401.239 82.2436 391.467 83.3518C381.686 84.4609 370.279 88.2652 357.483 94.5906C331.89 107.241 300.929 129.879 266.626 160.726C198.032 222.41 116.239 316.767 37.5263 429.18C-41.186 541.593 -101.878 650.726 -136.381 736.28C-153.636 779.065 -164.319 815.901 -167.454 844.277C-169.021 858.466 -168.694 870.486 -166.391 880.056C-164.091 889.618 -159.834 896.672 -153.58 901.05Z" stroke="#2B2C3B" stroke-width="2"/>
<path opacity="0.172414" d="M-117.074 928.273C-110.463 932.09 -102.271 932.967 -92.6329 931.011C-82.9864 929.054 -71.9541 924.27 -59.7574 916.853C-35.3648 902.02 -6.495 876.77 24.9892 843.05C87.9464 775.623 161.204 674.496 229.82 555.651C298.435 436.805 349.385 322.798 376.3 234.562C389.76 190.436 397.193 152.809 397.842 124.268C398.166 109.997 396.793 98.0508 393.665 88.7181C390.54 79.3933 385.685 72.7372 379.073 68.92C372.462 65.1029 364.27 64.2264 354.632 66.182C344.985 68.1393 333.953 72.9234 321.756 80.34C297.364 95.1727 268.494 120.423 237.01 154.143C174.052 221.57 100.794 322.697 32.1789 441.543C-36.4365 560.388 -87.3861 674.395 -114.301 762.631C-127.761 806.757 -135.194 844.384 -135.843 872.925C-136.168 887.196 -134.795 899.142 -131.666 908.475C-128.541 917.8 -123.686 924.456 -117.074 928.273Z" stroke="#2B2C3B" stroke-width="2"/>
<path opacity="0.206897" d="M-78.6802 952.23C-71.7612 955.456 -63.5241 955.615 -54.093 952.827C-44.6538 950.036 -34.0805 944.309 -22.5765 935.858C0.43051 918.955 26.9897 891.285 55.4152 854.95C112.256 782.292 176.422 675.165 234.418 550.791C292.414 426.418 333.234 308.404 352.356 218.158C361.919 173.027 366.044 134.895 364.203 106.406C363.283 92.1613 360.874 80.3801 356.944 71.3555C353.018 62.3386 347.601 56.131 340.682 52.9046C333.763 49.6782 325.526 49.519 316.095 52.3072C306.656 55.0978 296.082 60.8252 284.578 69.2766C261.571 86.1789 235.012 113.849 206.587 150.185C149.746 222.843 85.5801 329.97 27.5839 454.343C-30.4124 578.716 -71.2317 696.73 -90.3543 786.976C-99.9173 832.107 -104.042 870.239 -102.201 898.728C-101.281 912.973 -98.8718 924.754 -94.9422 933.779C-91.0159 942.796 -85.5992 949.003 -78.6802 952.23Z" stroke="#2B2C3B" stroke-width="2"/>
<path opacity="0.241379" d="M-38.6937 972.762C-31.5198 975.373 -23.3002 974.813 -14.1479 971.214C-4.98789 967.611 5.04604 960.984 15.7696 951.562C37.216 932.719 61.2625 902.839 86.413 864.165C136.705 786.829 191.29 674.517 238.225 545.563C285.161 416.608 315.54 295.486 326.724 203.916C332.317 158.123 333.103 119.777 328.786 91.557C326.627 77.4464 323.201 65.9201 318.5 57.2723C313.802 48.6319 307.865 42.92 300.691 40.309C293.517 37.6979 285.298 38.2571 276.146 41.8568C266.986 45.4594 256.952 52.0865 246.228 61.5084C224.782 80.3515 200.735 110.231 175.585 148.906C125.293 226.241 70.7081 338.553 23.7724 467.508C-23.1633 596.463 -53.5418 717.585 -64.7261 809.154C-70.3193 854.947 -71.1049 893.293 -66.7882 921.514C-64.6297 935.624 -61.2031 947.15 -56.5019 955.798C-51.8046 964.439 -45.8675 970.15 -38.6937 972.762Z" stroke="#2B2C3B" stroke-width="2"/>
<path opacity="0.275862" d="M2.58643 989.742C9.96059 991.718 18.1002 990.444 26.9038 986.061C35.7151 981.673 45.1332 974.197 54.9948 963.876C74.7173 943.236 96.0681 911.374 117.752 870.654C161.113 789.23 205.701 672.588 241.219 540.033C276.737 407.479 296.443 284.17 299.604 191.974C301.185 145.868 298.625 107.599 291.866 79.8625C288.486 65.9938 284.067 54.8099 278.63 46.6048C273.198 38.4067 266.786 33.234 259.411 31.2581C252.037 29.2822 243.898 30.5557 235.094 34.9393C226.283 39.3266 216.865 46.803 207.003 57.1237C187.281 77.7642 165.93 109.626 144.246 150.346C100.885 231.77 56.297 348.412 20.779 480.967C-14.7389 613.521 -34.4453 736.83 -37.6063 829.026C-39.187 875.132 -36.6276 913.401 -29.8677 941.137C-26.4877 955.006 -22.0695 966.19 -16.6325 974.395C-11.2 982.593 -4.78772 987.766 2.58643 989.742Z" stroke="#2B2C3B" stroke-width="2"/>
<path opacity="0.310345" d="M44.8441 1003.08C52.3624 1004.41 60.36 1002.43 68.7481 997.297C77.1434 992.159 85.8741 983.89 94.7987 972.749C112.647 950.468 131.14 916.867 149.192 874.412C185.291 789.519 219.544 669.434 243.374 534.288C267.204 399.143 276.088 274.585 271.201 182.465C268.758 136.396 262.873 98.4964 253.721 71.4546C249.145 57.9333 243.769 47.1771 237.638 39.477C231.511 31.7836 224.673 27.1894 217.154 25.8637C209.636 24.5381 201.638 26.5161 193.25 31.6503C184.855 36.7889 176.124 45.0577 167.2 56.1986C149.351 78.4795 130.859 112.081 112.806 154.535C76.7072 239.429 42.4546 359.513 18.6248 494.659C-5.20512 629.805 -14.0894 754.362 -9.20296 846.483C-6.75929 892.551 -0.874255 930.451 8.27728 957.493C12.8532 971.014 18.2293 981.771 24.3608 989.471C30.487 997.164 37.3258 1001.76 44.8441 1003.08Z" stroke="#2B2C3B" stroke-width="2"/>
<path opacity="0.344828" d="M87.7588 1012.7C95.364 1013.37 103.159 1010.7 111.068 1004.86C118.983 999.005 126.96 990.007 134.879 978.131C150.718 954.379 166.212 919.294 180.496 875.428C209.058 787.711 232.714 665.098 244.675 528.39C256.635 391.681 254.63 266.823 241.733 175.479C235.284 129.799 226.118 92.5564 214.644 66.4152C208.907 53.3441 202.614 43.0974 195.835 35.961C189.061 28.8308 181.848 24.8501 174.243 24.1848C166.638 23.5194 158.843 26.187 150.934 32.0327C143.019 37.8834 135.042 46.8817 127.122 58.758C111.284 82.5098 95.79 117.595 81.5062 161.461C52.9437 249.178 29.2875 371.791 17.3271 508.499C5.36662 645.208 7.372 770.065 20.2687 861.41C26.7182 907.09 35.884 944.332 47.3576 970.474C53.0946 983.545 59.3877 993.792 66.1669 1000.93C72.9404 1008.06 80.1536 1012.04 87.7588 1012.7Z" stroke="#2B2C3B" stroke-width="2"/>
<path opacity="0.37931" d="M130.999 1018.56C138.633 1018.56 146.166 1015.22 153.535 1008.71C160.91 1002.19 168.072 992.534 174.927 980.012C188.635 954.971 201.012 918.668 211.418 873.724C232.227 783.852 245.107 659.644 245.107 522.413C245.107 385.182 232.227 260.975 211.418 171.102C201.012 126.158 188.635 89.8559 174.927 64.8141C168.072 52.2928 160.91 42.6335 153.535 36.1152C146.166 29.6024 138.633 26.2656 130.999 26.2656C123.364 26.2656 115.832 29.6024 108.463 36.1152C101.087 42.6335 93.925 52.2928 87.0706 64.8141C73.3623 89.8559 60.9855 126.158 50.5792 171.102C29.7704 260.975 16.8906 385.182 16.8906 522.413C16.8906 659.644 29.7704 783.852 50.5792 873.724C60.9855 918.668 73.3623 954.971 87.0706 980.012C93.925 992.534 101.087 1002.19 108.463 1008.71C115.832 1015.22 123.364 1018.56 130.999 1018.56Z" stroke="#2B2C3B" stroke-width="2"/>
<path opacity="0.413793" d="M174.241 1020.64C181.847 1019.97 189.06 1015.99 195.833 1008.86C202.613 1001.73 208.906 991.48 214.643 978.409C226.116 952.268 235.282 915.025 241.732 869.345C254.628 778.001 256.634 653.143 244.673 516.435C232.713 379.726 209.056 257.114 180.494 169.397C166.21 125.53 150.716 90.4451 134.878 66.6933C126.958 54.817 118.981 45.8188 111.066 39.9681C103.157 34.1223 95.3624 31.4547 87.7572 32.1201C80.152 32.7855 72.9388 36.7661 66.1653 43.8964C59.3861 51.0327 53.093 61.2794 47.356 74.3505C35.8824 100.492 26.7166 137.735 20.2671 183.415C7.3704 274.759 5.36502 399.616 17.3255 536.325C29.2859 673.034 52.9421 795.646 81.5046 883.363C95.7884 927.229 111.282 962.314 127.121 986.066C135.04 997.943 143.017 1006.94 150.933 1012.79C158.841 1018.64 166.636 1021.3 174.241 1020.64Z" stroke="#2B2C3B" stroke-width="2"/>
<path opacity="0.448276" d="M217.156 1018.96C224.674 1017.63 231.513 1013.04 237.639 1005.35C243.771 997.646 249.147 986.889 253.723 973.368C262.874 946.326 268.759 908.426 271.203 862.358C276.089 770.237 267.205 645.68 243.375 510.534C219.545 375.388 185.293 255.304 149.194 170.41C131.141 127.956 112.649 94.3545 94.8 72.0735C85.8755 60.9326 77.1448 52.6639 68.7495 47.5253C60.3614 42.3911 52.3638 40.413 44.8454 41.7387C37.3271 43.0644 30.4884 47.6585 24.3621 55.352C18.2306 63.052 12.8546 73.8082 8.27861 87.3296C-0.872917 114.371 -6.75794 152.271 -9.20161 198.34C-14.0881 290.46 -5.20378 415.017 18.6261 550.163C42.456 685.309 76.7085 805.394 112.807 890.287C130.86 932.742 149.353 966.343 167.201 988.624C176.126 999.765 184.856 1008.03 193.252 1013.17C201.64 1018.31 209.637 1020.28 217.156 1018.96Z" stroke="#2B2C3B" stroke-width="2"/>
<path opacity="0.482759" d="M259.414 1013.56C266.788 1011.59 273.201 1006.42 278.633 998.217C284.07 990.012 288.488 978.828 291.868 964.959C298.628 937.223 301.188 898.954 299.607 852.848C296.446 760.652 276.74 637.343 241.222 504.789C205.704 372.234 161.115 255.592 117.755 174.167C96.0708 133.448 74.72 101.586 54.9975 80.9456C45.136 70.6249 35.7178 63.1485 26.9066 58.7612C18.1029 54.3776 9.96334 53.1041 2.58919 55.08C-4.78496 57.0559 -11.1973 62.2286 -16.6297 70.4267C-22.0668 78.6319 -26.4849 89.8157 -29.865 103.684C-36.6248 131.421 -39.1843 169.69 -37.6035 215.796C-34.4426 307.992 -14.7362 431.3 20.7818 563.855C56.2997 696.41 100.888 813.052 144.248 894.476C165.932 935.196 187.283 967.058 207.006 987.698C216.867 998.019 226.286 1005.5 235.097 1009.88C243.9 1014.27 252.04 1015.54 259.414 1013.56Z" stroke="#2B2C3B" stroke-width="2"/>
<path opacity="0.517241" d="M300.694 1004.52C307.868 1001.9 313.805 996.192 318.502 987.552C323.203 978.904 326.63 967.378 328.789 953.267C333.105 925.047 332.32 886.701 326.726 840.908C315.542 749.339 285.164 628.216 238.228 499.262C191.292 370.307 136.708 257.995 86.4156 180.66C61.2651 141.985 37.2186 112.105 15.7722 93.2621C5.04867 83.8402 -4.98525 77.2131 -14.1453 73.6104C-23.2975 70.0108 -31.5171 69.4515 -38.691 72.0626C-45.8649 74.6737 -51.802 80.3856 -56.4992 89.026C-61.2005 97.6737 -64.6271 109.2 -66.7855 123.311C-71.1023 151.531 -70.3167 189.877 -64.7235 235.67C-53.5392 327.239 -23.1607 448.361 23.775 577.316C70.7107 706.271 125.295 818.583 175.587 895.918C200.738 934.593 224.784 964.473 246.231 983.316C256.954 992.738 266.988 999.365 276.148 1002.97C285.301 1006.57 293.52 1007.13 300.694 1004.52Z" stroke="#2B2C3B" stroke-width="2"/>
<path opacity="0.551724" d="M340.682 991.921C347.601 988.694 353.018 982.487 356.944 973.47C360.874 964.445 363.283 952.664 364.203 938.419C366.044 909.93 361.919 871.798 352.356 826.667C333.234 736.421 292.414 618.407 234.418 494.034C176.422 369.661 112.257 262.533 55.4156 189.875C26.9901 153.54 0.430853 125.87 -22.5762 108.967C-34.0801 100.516 -44.6534 94.7887 -54.0926 91.9981C-63.5238 89.2098 -71.7608 89.3691 -78.6798 92.5955C-85.5989 95.8219 -91.0155 102.029 -94.9418 111.046C-98.8715 120.071 -101.28 131.852 -102.201 146.097C-104.042 174.586 -99.917 212.718 -90.354 257.849C-71.2314 348.095 -30.412 466.109 27.5842 590.482C85.5805 714.855 149.746 821.983 206.587 894.641C235.012 930.976 261.572 958.646 284.579 975.548C296.083 984 306.656 989.727 316.095 992.518C325.526 995.306 333.763 995.147 340.682 991.921Z" stroke="#2B2C3B" stroke-width="2"/>
<path opacity="0.586207" d="M379.072 975.907C385.684 972.09 390.539 965.434 393.664 956.109C396.793 946.776 398.166 934.83 397.841 920.559C397.192 892.018 389.759 854.391 376.299 810.265C349.384 722.029 298.434 608.022 229.819 489.177C161.204 370.331 87.9456 269.204 24.9884 201.777C-6.49576 168.057 -35.3655 142.807 -59.7582 127.974C-71.9549 120.558 -82.9872 115.773 -92.6336 113.816C-102.272 111.86 -110.464 112.737 -117.075 116.554C-123.687 120.371 -128.542 127.027 -131.667 136.352C-134.795 145.685 -136.168 157.631 -135.844 171.902C-135.195 200.443 -127.762 238.07 -114.302 282.196C-87.3869 370.432 -36.4373 484.439 32.1781 603.285C100.794 722.13 174.052 823.257 237.009 890.685C268.493 924.404 297.363 949.654 321.755 964.487C333.952 971.904 344.984 976.688 354.631 978.645C364.269 980.601 372.461 979.724 379.072 975.907Z" stroke="#2B2C3B" stroke-width="2"/>
<path opacity="0.62069" d="M415.58 956.613C421.834 952.234 426.091 945.181 428.391 935.619C430.694 926.049 431.021 914.028 429.454 899.84C426.319 871.464 415.636 834.628 398.381 791.843C363.878 706.289 303.186 597.156 224.474 484.743C145.761 372.33 63.9682 277.973 -4.62613 216.289C-38.9294 185.442 -69.89 162.804 -95.4826 150.153C-108.279 143.828 -119.687 140.024 -129.467 138.915C-139.239 137.806 -147.323 139.394 -153.577 143.772C-159.83 148.151 -164.087 155.205 -166.388 164.767C-168.691 174.337 -169.017 186.357 -167.45 200.546C-164.316 228.921 -153.632 265.758 -136.378 308.542C-101.874 394.097 -41.1824 503.23 37.5299 615.643C116.242 728.055 198.035 822.413 266.63 884.097C300.933 914.944 331.894 937.582 357.486 950.232C370.283 956.558 381.69 960.362 391.47 961.471C401.242 962.579 409.327 960.992 415.58 956.613Z" stroke="#2B2C3B" stroke-width="2"/>
<path opacity="0.655172" d="M449.918 934.239C455.766 929.331 459.391 921.933 460.85 912.208C462.31 902.473 461.588 890.47 458.79 876.472C453.194 848.478 439.341 812.713 418.423 771.595C376.595 689.373 306.622 585.945 218.412 480.82C130.202 375.695 40.4959 288.826 -33.2135 233.355C-70.0747 205.615 -102.891 185.761 -129.488 175.39C-142.788 170.204 -154.483 167.408 -164.323 167.156C-174.154 166.903 -182.069 169.189 -187.918 174.096C-193.766 179.004 -197.391 186.402 -198.85 196.127C-200.31 205.862 -199.588 217.865 -196.79 231.863C-191.195 259.857 -177.341 295.622 -156.423 336.74C-114.595 418.962 -44.6221 522.39 43.5881 627.515C131.798 732.64 221.504 819.509 295.213 874.98C332.075 902.72 364.89 922.574 391.488 932.945C404.788 938.131 416.483 940.927 426.323 941.179C436.154 941.432 444.069 939.146 449.918 934.239Z" stroke="#2B2C3B" stroke-width="2"/>
<path opacity="0.689655" d="M481.83 908.964C487.228 903.566 490.195 895.88 490.801 886.064C491.407 876.24 489.641 864.345 485.634 850.645C477.62 823.244 460.702 788.823 436.28 749.684C387.445 671.421 308.724 574.485 211.687 477.448C114.65 380.412 17.7148 301.691 -60.5487 252.856C-99.6874 228.433 -134.109 211.516 -161.509 203.502C-175.21 199.495 -187.104 197.729 -196.929 198.335C-206.745 198.94 -214.431 201.907 -219.829 207.306C-225.227 212.704 -228.194 220.39 -228.8 230.206C-229.406 240.03 -227.64 251.925 -223.633 265.625C-215.619 293.026 -198.701 327.447 -174.279 366.586C-125.444 444.849 -46.7229 541.785 50.3139 638.822C147.351 735.858 244.286 814.579 322.55 863.415C361.688 887.837 396.11 904.754 423.51 912.768C437.211 916.776 449.105 918.541 458.93 917.935C468.746 917.33 476.432 914.363 481.83 908.964Z" stroke="#2B2C3B" stroke-width="2"/>
<path opacity="0.724138" d="M511.07 881.019C515.978 875.171 518.263 867.255 518.011 857.424C517.758 847.584 514.963 835.889 509.777 822.589C499.405 795.992 479.552 763.176 451.812 726.315C396.341 652.605 309.471 562.9 204.346 474.689C99.2215 386.479 -4.20611 316.506 -86.428 274.678C-127.546 253.76 -163.311 239.907 -191.306 234.311C-205.304 231.513 -217.307 230.791 -227.041 232.251C-236.767 233.71 -244.165 237.335 -249.072 243.184C-253.979 249.032 -256.265 256.947 -256.013 266.778C-255.76 276.618 -252.965 288.314 -247.779 301.613C-237.407 328.211 -217.554 361.027 -189.813 397.888C-134.343 471.597 -47.473 561.303 57.6519 649.513C162.777 737.723 266.204 807.696 348.426 849.524C389.545 870.442 425.309 884.296 453.304 889.891C467.302 892.689 479.305 893.411 489.039 891.951C498.765 890.493 506.163 886.867 511.07 881.019Z" stroke="#2B2C3B" stroke-width="2"/>
<path opacity="0.758621" d="M537.421 850.651C541.8 844.397 543.388 836.313 542.279 826.541C541.17 816.76 537.366 805.353 531.04 792.556C518.39 766.964 495.752 736.003 464.905 701.7C403.221 633.106 308.864 551.313 196.451 472.6C84.0379 393.888 -25.0946 333.196 -110.649 298.693C-153.434 281.438 -190.27 270.755 -218.646 267.62C-232.835 266.053 -244.855 266.38 -254.425 268.683C-263.987 270.983 -271.04 275.24 -275.419 281.494C-279.798 287.747 -281.385 295.831 -280.277 305.603C-279.168 315.384 -275.364 326.791 -269.038 339.588C-256.388 365.18 -233.75 396.141 -202.903 430.444C-141.219 499.039 -46.8615 580.832 65.5514 659.544C177.964 738.256 287.097 798.948 372.651 833.452C415.436 850.706 452.272 861.39 480.648 864.524C494.837 866.091 506.857 865.765 516.427 863.462C525.989 861.161 533.043 856.904 537.421 850.651Z" stroke="#2B2C3B" stroke-width="2"/>
<path opacity="0.793103" d="M560.675 818.117C564.493 811.506 565.369 803.314 563.413 793.676C561.456 784.029 556.672 772.997 549.255 760.8C534.423 736.408 509.173 707.538 475.453 676.054C408.025 613.097 306.898 539.839 188.053 471.223C69.2075 402.608 -44.7994 351.658 -133.036 324.743C-177.162 311.283 -214.789 303.85 -243.33 303.201C-257.601 302.877 -269.547 304.25 -278.88 307.378C-288.204 310.503 -294.86 315.358 -298.678 321.97C-302.495 328.581 -303.371 336.773 -301.416 346.411C-299.458 356.058 -294.674 367.09 -287.258 379.287C-272.425 403.679 -247.175 432.549 -213.455 464.033C-146.028 526.991 -44.9005 600.249 73.9449 668.864C192.79 737.479 306.797 788.429 395.033 815.344C439.159 828.804 476.786 836.237 505.327 836.886C519.598 837.211 531.545 835.838 540.877 832.709C550.202 829.584 556.858 824.729 560.675 818.117Z" stroke="#2B2C3B" stroke-width="2"/>
<path opacity="0.827586" d="M580.663 783.696C583.89 776.777 584.049 768.54 581.261 759.109C578.47 749.669 572.743 739.096 564.291 727.592C547.389 704.585 519.719 678.026 483.383 649.6C410.725 592.759 303.598 528.594 179.225 470.598C54.8515 412.601 -63.1621 371.782 -153.408 352.66C-198.54 343.097 -236.671 338.972 -265.16 340.813C-279.405 341.733 -291.186 344.142 -300.211 348.072C-309.228 351.998 -315.435 357.415 -318.662 364.334C-321.888 371.253 -322.047 379.49 -319.259 388.921C-316.469 398.36 -310.741 408.933 -302.29 420.437C-285.388 443.444 -257.717 470.004 -221.382 498.429C-148.724 555.27 -41.5968 619.436 82.7766 677.432C207.15 735.428 325.164 776.247 415.41 795.37C460.541 804.933 498.673 809.058 527.162 807.217C541.407 806.296 553.188 803.887 562.212 799.958C571.229 796.032 577.437 790.615 580.663 783.696Z" stroke="#2B2C3B" stroke-width="2"/>
<path opacity="0.862069" d="M597.226 747.674C599.838 740.5 599.278 732.281 595.679 723.128C592.076 713.968 585.449 703.934 576.027 693.211C557.184 671.765 527.304 647.718 488.629 622.567C411.294 572.275 298.982 517.691 170.027 470.755C41.0726 423.819 -80.0496 393.441 -171.619 382.257C-217.412 376.663 -255.758 375.878 -283.978 380.195C-298.089 382.353 -309.615 385.78 -318.263 390.481C-326.903 395.178 -332.615 401.115 -335.226 408.289C-337.837 415.463 -337.278 423.683 -333.678 432.835C-330.076 441.995 -323.449 452.029 -314.027 462.752C-295.184 484.199 -265.304 508.245 -226.629 533.396C-149.294 583.688 -36.9819 638.272 91.9729 685.208C220.928 732.144 342.05 762.522 433.619 773.707C479.412 779.3 517.758 780.085 545.978 775.769C560.089 773.61 571.615 770.184 580.263 765.482C588.903 760.785 594.615 754.848 597.226 747.674Z" stroke="#2B2C3B" stroke-width="2"/>
<path opacity="0.896552" d="M610.242 710.363C612.218 702.989 610.944 694.849 606.561 686.045C602.173 677.234 594.697 667.816 584.376 657.954C563.736 638.232 531.874 616.881 491.154 595.197C409.73 551.837 293.088 507.248 160.533 471.73C27.9785 436.212 -95.3304 416.506 -187.526 413.345C-233.632 411.764 -271.901 414.324 -299.637 421.084C-313.506 424.464 -324.69 428.882 -332.895 434.319C-341.093 439.751 -346.266 446.164 -348.242 453.538C-350.218 460.912 -348.944 469.052 -344.561 477.855C-340.173 486.666 -332.697 496.085 -322.376 505.946C-301.736 525.669 -269.874 547.019 -229.154 568.704C-147.73 612.064 -31.0882 656.652 101.467 692.17C234.021 727.688 357.33 747.395 449.526 750.556C495.632 752.136 533.901 749.577 561.637 742.817C575.506 739.437 586.69 735.019 594.895 729.582C603.093 724.149 608.266 717.737 610.242 710.363Z" stroke="#2B2C3B" stroke-width="2"/>
<path opacity="0.931035" d="M619.611 672.074C620.937 664.556 618.959 656.558 613.825 648.17C608.686 639.775 600.417 631.044 589.276 622.119C566.995 604.271 533.394 585.778 490.94 567.726C406.046 531.627 285.962 497.374 150.816 473.544C15.6699 449.714 -108.887 440.83 -201.008 445.717C-247.076 448.16 -284.976 454.045 -312.018 463.197C-325.539 467.773 -336.296 473.149 -343.996 479.28C-351.689 485.407 -356.283 492.245 -357.609 499.764C-358.935 507.282 -356.957 515.279 -351.822 523.668C-346.684 532.063 -338.415 540.794 -327.274 549.718C-304.993 567.567 -271.392 586.059 -228.937 604.112C-144.044 640.211 -23.9594 674.463 111.187 698.293C246.332 722.123 370.89 731.007 463.01 726.121C509.079 723.677 546.979 717.792 574.02 708.641C587.542 704.065 598.298 698.689 605.998 692.557C613.691 686.431 618.286 679.592 619.611 672.074Z" stroke="#2B2C3B" stroke-width="2"/>
<path opacity="0.965517" d="M625.259 633.132C625.924 625.527 623.257 617.732 617.411 609.823C611.56 601.908 602.562 593.931 590.686 586.011C566.934 570.173 531.849 554.679 487.982 540.395C400.265 511.833 277.653 488.176 140.944 476.216C4.23572 464.255 -120.622 466.261 -211.966 479.158C-257.646 485.607 -294.889 494.773 -321.03 506.246C-334.101 511.983 -344.348 518.276 -351.484 525.056C-358.615 531.829 -362.595 539.042 -363.261 546.648C-363.926 554.253 -361.258 562.048 -355.413 569.956C-349.562 577.872 -340.564 585.849 -328.687 593.768C-304.936 609.607 -269.85 625.101 -225.984 639.384C-138.267 667.947 -15.6546 691.603 121.054 703.564C257.763 715.524 382.62 713.519 473.964 700.622C519.644 694.172 556.887 685.007 583.028 673.533C596.1 667.796 606.346 661.503 613.483 654.724C620.613 647.95 624.593 640.737 625.259 633.132Z" stroke="#2B2C3B" stroke-width="2"/>
<path d="M627.147 593.857C627.147 586.223 623.81 578.69 617.297 571.321C610.779 563.945 601.12 556.783 588.598 549.929C563.557 536.22 527.254 523.844 482.31 513.437C392.438 492.629 268.23 479.749 130.999 479.749C-6.23157 479.749 -130.439 492.629 -220.312 513.437C-265.256 523.844 -301.558 536.22 -326.6 549.929C-339.121 556.783 -348.781 563.945 -355.299 571.321C-361.812 578.69 -365.148 586.223 -365.148 593.857C-365.148 601.491 -361.812 609.024 -355.299 616.393C-348.781 623.768 -339.121 630.93 -326.6 637.785C-301.558 651.493 -265.256 663.87 -220.312 674.276C-130.439 695.085 -6.23157 707.965 130.999 707.965C268.23 707.965 392.438 695.085 482.31 674.276C527.254 663.87 563.557 651.493 588.598 637.785C601.12 630.93 610.779 623.768 617.297 616.393C623.81 609.024 627.147 601.491 627.147 593.857Z" stroke="#2B2C3B" stroke-width="2"/>
</g>
</g>
<g filter="url(#filter0_f_1387_62009)">
<path d="M100.778 577.546C162.151 552.566 185.757 482.308 210.738 543.681C235.718 605.055 114.995 769.194 53.6209 794.175C-7.75269 819.155 13.4649 695.518 -11.5157 634.144C-36.4964 572.771 39.4042 602.527 100.778 577.546Z" fill="url(#paint0_linear_1387_62009)"/>
</g>
</g>
<defs>
<filter id="filter0_f_1387_62009" x="-226.402" y="309.184" width="650.496" height="698.277" filterUnits="userSpaceOnUse" color-interpolation-filters="sRGB">
<feFlood flood-opacity="0" result="BackgroundImageFix"/>
<feBlend mode="normal" in="SourceGraphic" in2="BackgroundImageFix" result="shape"/>
<feGaussianBlur stdDeviation="105" result="effect1_foregroundBlur_1387_62009"/>
</filter>
<linearGradient id="paint0_linear_1387_62009" x1="26.3438" y1="805.277" x2="-37.4304" y2="580.793" gradientUnits="userSpaceOnUse">
<stop stop-color="#6DDCFF"/>
<stop offset="1" stop-color="#7F60F9"/>
</linearGradient>
<clipPath id="clip0_1387_62009">
<rect width="638" height="1038" fill="white"/>
</clipPath>
<clipPath id="clip1_1387_62009">
<rect width="683" height="1501" fill="white" transform="translate(-42)"/>
</clipPath>
</defs>
</svg>
