<svg width="417" height="284" viewBox="0 0 417 284" fill="none" xmlns="http://www.w3.org/2000/svg">
<path d="M415.964 190.322C415.964 190.322 403.741 219.013 395.507 229.906C378.956 251.915 356.027 268.29 329.84 276.805C299.047 286.798 265.694 285.431 235.822 272.952C203.488 259.4 177.774 233.685 164.222 201.352C157.228 184.824 153.667 167.047 153.755 149.101C153.755 145.691 153.925 142.282 154.181 138.872V107.402C154.271 98.1749 151.599 89.1318 146.507 81.4363C141.415 73.7407 134.137 67.7449 125.609 64.2204C113.938 59.3994 100.832 59.3994 89.1611 64.2204C80.6642 67.7887 73.4154 73.7949 68.33 81.4805C63.2447 89.1662 60.551 98.1865 60.5892 107.402V248.165C60.5847 256.196 57.3911 263.897 51.7104 269.574C46.0297 275.252 38.327 278.441 30.2956 278.441C26.3159 278.441 22.3753 277.657 18.6988 276.134C15.0222 274.61 11.6819 272.377 8.86869 269.562C6.05544 266.747 3.82438 263.406 2.30298 259.729C0.781585 256.051 -0.000331341 252.11 0.0019082 248.13V107.402C-0.0845761 93.009 2.76956 78.7499 8.38935 65.499C19.2704 39.7571 39.7571 19.2704 65.499 8.38935C78.7499 2.76957 93.009 -0.0845761 107.402 0.0019082C121.784 -0.0799308 136.031 2.77412 149.271 8.38935C175.015 19.2619 195.499 39.7521 206.364 65.499C212.008 78.744 214.88 93.0047 214.802 107.402V149.101C214.731 158.979 216.668 168.77 220.496 177.877C224.204 186.638 229.557 194.606 236.265 201.352C243.048 208.099 251.025 213.527 259.791 217.359C271.445 222.339 284.191 224.212 296.785 222.795C309.378 221.379 321.39 216.722 331.647 209.279C336.324 205.395 340.438 200.88 343.87 195.862C349.05 188.744 356.387 183.485 364.793 180.869C373.199 178.252 382.224 178.417 390.529 181.338L415.964 190.322Z" fill="url(#paint0_linear_1336_19170)"/>
<path style="mix-blend-mode:overlay" opacity="0.7" d="M31.3696 43.4905C41.1643 33.6963 52.7512 25.8772 65.499 20.4591C78.7528 14.8562 93.0131 12.0251 107.402 12.1398C121.78 12.0297 136.028 14.8608 149.271 20.4591C175.018 31.3184 195.504 51.805 206.364 77.5517C212.011 90.8138 214.882 105.092 214.802 119.506V107.402C214.886 93.0186 212.026 78.77 206.398 65.5331C195.532 39.7669 175.034 19.2627 149.271 8.38935C136.031 2.77412 121.784 -0.0799308 107.402 0.0019082C93.009 -0.0845761 78.7499 2.76956 65.499 8.38935C39.7571 19.2704 19.2704 39.7571 8.38935 65.499C2.76956 78.7499 -0.0845761 93.009 0.0019082 107.402V119.506C-0.0774701 105.119 2.77643 90.8669 8.38935 77.6198C13.8016 64.8813 21.602 53.2964 31.3696 43.4905Z" fill="url(#paint1_linear_1336_19170)"/>
<path style="mix-blend-mode:overlay" opacity="0.7" d="M214.799 161.222C214.726 171.107 216.663 180.903 220.493 190.016C224.201 198.771 229.554 206.734 236.262 213.473C243.04 220.226 251.018 225.655 259.788 229.481C271.44 234.463 284.185 236.339 296.779 234.925C309.373 233.512 321.385 228.858 331.643 221.418C336.312 217.525 340.425 213.011 343.867 208.001C349.044 200.879 356.381 195.618 364.787 192.998C373.192 190.378 382.219 190.54 390.526 193.46L400.755 197.04C403.686 198.088 406.908 197.976 409.76 196.728C412.612 195.479 414.879 193.188 416.097 190.323L390.645 181.339C382.34 178.418 373.315 178.253 364.909 180.87C356.503 183.486 349.166 188.745 343.986 195.863C340.554 200.881 336.44 205.396 331.763 209.28C321.506 216.723 309.494 221.38 296.901 222.796C284.307 224.213 271.561 222.34 259.907 217.36C251.141 213.528 243.164 208.1 236.381 201.353C229.673 194.607 224.32 186.638 220.612 177.878C216.743 168.779 214.765 158.989 214.799 149.102V161.222Z" fill="url(#paint2_linear_1336_19170)"/>
<path d="M227.262 56.532C230.717 64.5833 233.312 72.9777 235.001 81.5749C242.531 75.3376 250.854 70.1268 259.754 66.0786C268.816 62.1202 278.608 60.1106 288.497 60.1801C303.633 59.9985 318.449 64.5457 330.877 73.1875C334.855 76.2208 338.394 79.7891 341.395 83.7911C347.327 91.2598 355.458 96.6731 364.637 99.2646C373.815 101.856 383.577 101.494 392.538 98.2305L414.7 90.1499L413.371 86.5699C410.313 78.4976 406.494 70.7344 401.966 63.3851C399.457 59.3147 396.731 55.3824 393.8 51.6052C385.599 41.1496 375.903 31.9589 365.024 24.3289C354.032 16.6439 341.97 10.6184 329.223 6.44597C324.16 4.77953 318.995 3.43575 313.761 2.42272C305.304 0.810304 296.714 -0.00021278 288.105 0.00195747C269.727 0.00195747 251.861 3.00234 235.819 10.6908C226.599 15.2099 217.772 20.4903 209.43 26.477C216.677 35.6623 222.673 45.7689 227.262 56.532Z" fill="#3B9994"/>
<path style="mix-blend-mode:multiply" d="M411.94 82.8873L398.643 87.7289C389.681 90.99 379.92 91.3504 370.742 88.7591C361.564 86.1678 353.433 80.756 347.5 73.2895C344.494 69.2913 340.955 65.7236 336.982 62.6859C324.548 54.0417 309.726 49.4944 294.584 49.6785C293.791 49.6895 292.999 49.7521 292.214 49.866C278.451 51.69 264.449 49.9163 251.575 44.7176C238.701 39.519 227.394 31.073 218.756 20.2031C215.244 22.4364 212.073 24.5844 209.414 26.4767C216.673 35.6601 222.681 45.7667 227.28 56.5317C230.736 64.583 233.33 72.9774 235.02 81.5746C242.549 75.3374 250.873 70.1265 259.773 66.0783C268.834 62.1199 278.627 60.1103 288.515 60.1799C303.652 59.9982 318.467 64.5454 330.896 73.1872C334.873 76.2205 338.413 79.7888 341.414 83.7909C347.346 91.2595 355.476 96.6728 364.655 99.2643C373.834 101.856 383.595 101.494 392.557 98.2302L414.719 90.1496L413.389 86.5696C412.963 85.3251 412.434 84.1147 411.94 82.8873Z" fill="url(#paint3_linear_1336_19170)"/>
<path style="mix-blend-mode:overlay" opacity="0.7" d="M402.037 63.3857C395.115 65.7417 387.852 66.9398 380.54 66.9316C363.216 66.937 346.568 60.2095 334.111 48.1697C321.655 36.1299 314.365 19.7204 313.781 2.40625C319.015 3.41928 324.18 4.76305 329.243 6.42949C341.99 10.6019 354.052 16.6274 365.044 24.3125C375.923 31.9424 385.619 41.1331 393.82 51.5887C396.769 55.3702 399.512 59.3083 402.037 63.3857Z" fill="url(#paint4_radial_1336_19170)"/>
<path style="mix-blend-mode:multiply" d="M89.1081 64.2383C80.6234 67.8133 73.3872 73.8203 68.3116 81.5019C63.236 89.1836 60.5483 98.196 60.5873 107.403V248.165C60.5828 256.197 57.3892 263.898 51.7085 269.575C46.0278 275.253 38.3251 278.442 30.2937 278.442C26.314 278.442 22.3734 277.658 18.6968 276.134C15.0203 274.611 11.68 272.378 8.86679 269.563C6.05353 266.748 3.82247 263.407 2.30108 259.729C0.779682 256.052 -0.00223474 252.111 4.79719e-06 248.131V177.435C4.79719e-06 90.9519 87.0964 64.7838 89.1081 64.2383Z" fill="url(#paint5_linear_1336_19170)"/>
<defs>
<linearGradient id="paint0_linear_1336_19170" x1="245.607" y1="51.2471" x2="109.976" y2="362.264" gradientUnits="userSpaceOnUse">
<stop stop-color="white"/>
<stop offset="0.44" stop-color="white"/>
<stop offset="1" stop-color="#6729FA"/>
</linearGradient>
<linearGradient id="paint1_linear_1336_19170" x1="148.248" y1="8.40639" x2="74.6365" y2="177.195" gradientUnits="userSpaceOnUse">
<stop/>
<stop offset="1" stop-color="white" stop-opacity="0"/>
</linearGradient>
<linearGradient id="paint2_linear_1336_19170" x1="323.784" y1="150.397" x2="278.949" y2="253.177" gradientUnits="userSpaceOnUse">
<stop/>
<stop offset="1" stop-color="white" stop-opacity="0"/>
</linearGradient>
<linearGradient id="paint3_linear_1336_19170" x1="273.871" y1="113.369" x2="358.939" y2="-9.22112" gradientUnits="userSpaceOnUse">
<stop stop-color="#4E5776"/>
<stop offset="1" stop-color="white" stop-opacity="0"/>
</linearGradient>
<radialGradient id="paint4_radial_1336_19170" cx="0" cy="0" r="1" gradientUnits="userSpaceOnUse" gradientTransform="translate(377.829 9.49807) scale(99.7458 99.7458)">
<stop stop-color="white"/>
<stop offset="1" stop-color="white" stop-opacity="0"/>
</radialGradient>
<linearGradient id="paint5_linear_1336_19170" x1="45.8241" y1="193.988" x2="42.1418" y2="85.2069" gradientUnits="userSpaceOnUse">
<stop stop-color="white" stop-opacity="0"/>
<stop offset="1" stop-color="#CD2440"/>
</linearGradient>
</defs>
</svg>
