<svg width="26" height="17" viewBox="0 0 26 17" fill="none" xmlns="http://www.w3.org/2000/svg">
<path fill-rule="evenodd" clip-rule="evenodd" d="M3.74887 5.68079C3.23725 6.2448 2.90611 6.89377 2.77271 7.60768L1.0061 7.57315C0.811024 7.57787 0.805956 7.73808 0.799857 7.96751L0.762749 9.56456C0.751237 9.7915 0.749864 9.93839 0.946574 9.94045L2.86007 9.98083C2.98754 10.3229 3.3466 11.0848 4.22106 11.8718L5.26723 12.0641C5.36403 12.0832 5.45936 12.1091 5.5525 12.1417L6.37791 12.4406L5.5105 12.4277C5.42752 12.4265 5.29592 12.4138 5.21809 12.3998L4.31864 12.2343L2.69909 15.9921C2.68266 16.0304 2.67473 16.0718 2.67584 16.1134C2.67696 16.1551 2.68709 16.196 2.70554 16.2334C2.72392 16.2696 2.74995 16.2998 2.78113 16.3213C2.81231 16.3427 2.84779 16.3548 2.88429 16.3565L6.90198 16.5557C6.94879 16.5581 6.99527 16.5432 7.03461 16.5131L10.1401 14.1273C11.1855 14.2369 12.3195 14.2643 13.512 14.2094C20.377 13.8922 23.7605 11.2438 25.1663 9.69401C25.6294 9.18333 25.8314 8.83776 25.8401 8.82359C25.8647 8.78035 25.8776 8.73144 25.8775 8.68168C25.8779 8.63223 25.8651 8.58356 25.8406 8.54063C25.7131 8.32073 22.6046 3.15165 12.648 2.94154C12.6347 2.94205 11.3204 2.93802 9.68151 3.18017L6.4669 0.97951C6.42958 0.95372 6.38446 0.941696 6.33925 0.945494L2.32346 1.28617C2.28712 1.28935 2.2519 1.30292 2.22089 1.32569C2.19005 1.34845 2.16446 1.37954 2.14642 1.41648C2.12838 1.45325 2.1185 1.49456 2.11764 1.53665C2.11678 1.57874 2.12503 1.62032 2.14161 1.65769L3.78366 5.33848L4.67023 5.28513C4.76682 5.281 4.86358 5.28367 4.95979 5.29312L5.81071 5.38675L4.97045 5.58226C4.87553 5.6035 4.77917 5.61774 4.68217 5.62487L3.74887 5.68079ZM14.4405 6.01777C16.0573 6.05127 17.3395 7.22543 17.3035 8.64096C17.268 10.0569 15.9286 11.1769 14.3112 11.1435C12.6944 11.11 11.413 9.93573 11.4483 8.52019C11.4839 7.10422 12.8238 5.98435 14.4405 6.01777Z" fill="white"/>
</svg>
