<svg width="22" height="21" viewBox="0 0 22 21" fill="none" xmlns="http://www.w3.org/2000/svg">
<path d="M21.0225 4.94336C21.0225 4.16877 20.7148 3.4259 20.167 2.87817C19.6193 2.33045 18.8764 2.02274 18.1018 2.02274H17.3717V1.31312C17.3717 0.920209 17.0696 0.582969 16.6767 0.563346C16.5779 0.558589 16.4793 0.573926 16.3867 0.608427C16.294 0.642927 16.2094 0.695874 16.1378 0.764057C16.0663 0.832241 16.0093 0.914242 15.9704 1.00509C15.9315 1.09594 15.9114 1.19375 15.9114 1.29259V2.02274H5.68921V1.31312C5.68921 0.920209 5.38711 0.582969 4.99419 0.563346C4.89547 0.558589 4.79681 0.573926 4.70419 0.608427C4.61156 0.642927 4.52691 0.695874 4.45536 0.764057C4.3838 0.832241 4.32684 0.914242 4.28791 1.00509C4.24898 1.09594 4.22891 1.19375 4.2289 1.29259V2.02274H3.49874C2.72415 2.02274 1.98128 2.33045 1.43355 2.87817C0.885832 3.4259 0.578125 4.16877 0.578125 4.94336V5.49098C0.578125 5.53939 0.597357 5.58582 0.631589 5.62005C0.665822 5.65429 0.712251 5.67352 0.760664 5.67352H20.8399C20.8883 5.67352 20.9348 5.65429 20.969 5.62005C21.0032 5.58582 21.0225 5.53939 21.0225 5.49098V4.94336ZM0.578125 18.0862C0.578125 18.8607 0.885832 19.6036 1.43355 20.1513C1.98128 20.6991 2.72415 21.0068 3.49874 21.0068H18.1018C18.8764 21.0068 19.6193 20.6991 20.167 20.1513C20.7148 19.6036 21.0225 18.8607 21.0225 18.0862V7.27073C21.0225 7.23442 21.008 7.1996 20.9824 7.17393C20.9567 7.14825 20.9219 7.13383 20.8856 7.13383H0.715029C0.67872 7.13383 0.643898 7.14825 0.618223 7.17393C0.592549 7.1996 0.578125 7.23442 0.578125 7.27073V18.0862ZM16.2765 8.59414C16.4931 8.59414 16.7048 8.65837 16.8849 8.77872C17.065 8.89906 17.2054 9.07012 17.2883 9.27024C17.3712 9.47037 17.3929 9.69059 17.3506 9.90304C17.3084 10.1155 17.2041 10.3106 17.0509 10.4638C16.8977 10.617 16.7026 10.7213 16.4901 10.7636C16.2777 10.8058 16.0575 10.7841 15.8573 10.7012C15.6572 10.6183 15.4861 10.478 15.3658 10.2978C15.2455 10.1177 15.1812 9.90599 15.1812 9.68937C15.1812 9.3989 15.2966 9.12032 15.502 8.91492C15.7074 8.70953 15.986 8.59414 16.2765 8.59414ZM16.2765 12.2449C16.4931 12.2449 16.7048 12.3091 16.8849 12.4295C17.065 12.5498 17.2054 12.7209 17.2883 12.921C17.3712 13.1211 17.3929 13.3414 17.3506 13.5538C17.3084 13.7663 17.2041 13.9614 17.0509 14.1146C16.8977 14.2678 16.7026 14.3721 16.4901 14.4143C16.2777 14.4566 16.0575 14.4349 15.8573 14.352C15.6572 14.2691 15.4861 14.1287 15.3658 13.9486C15.2455 13.7685 15.1812 13.5568 15.1812 13.3401C15.1812 13.0497 15.2966 12.7711 15.502 12.5657C15.7074 12.3603 15.986 12.2449 16.2765 12.2449ZM12.6257 8.59414C12.8423 8.59414 13.054 8.65837 13.2342 8.77872C13.4143 8.89906 13.5546 9.07012 13.6375 9.27024C13.7204 9.47037 13.7421 9.69059 13.6999 9.90304C13.6576 10.1155 13.5533 10.3106 13.4001 10.4638C13.247 10.617 13.0518 10.7213 12.8393 10.7636C12.6269 10.8058 12.4067 10.7841 12.2066 10.7012C12.0064 10.6183 11.8354 10.478 11.715 10.2978C11.5947 10.1177 11.5304 9.90599 11.5304 9.68937C11.5304 9.3989 11.6458 9.12032 11.8512 8.91492C12.0566 8.70953 12.3352 8.59414 12.6257 8.59414ZM12.6257 12.2449C12.8423 12.2449 13.054 12.3091 13.2342 12.4295C13.4143 12.5498 13.5546 12.7209 13.6375 12.921C13.7204 13.1211 13.7421 13.3414 13.6999 13.5538C13.6576 13.7663 13.5533 13.9614 13.4001 14.1146C13.247 14.2678 13.0518 14.3721 12.8393 14.4143C12.6269 14.4566 12.4067 14.4349 12.2066 14.352C12.0064 14.2691 11.8354 14.1287 11.715 13.9486C11.5947 13.7685 11.5304 13.5568 11.5304 13.3401C11.5304 13.0497 11.6458 12.7711 11.8512 12.5657C12.0566 12.3603 12.3352 12.2449 12.6257 12.2449ZM12.6257 15.8957C12.8423 15.8957 13.054 15.9599 13.2342 16.0803C13.4143 16.2006 13.5546 16.3717 13.6375 16.5718C13.7204 16.7719 13.7421 16.9921 13.6999 17.2046C13.6576 17.417 13.5533 17.6122 13.4001 17.7654C13.247 17.9185 13.0518 18.0228 12.8393 18.0651C12.6269 18.1074 12.4067 18.0857 12.2066 18.0028C12.0064 17.9199 11.8354 17.7795 11.715 17.5994C11.5947 17.4193 11.5304 17.2075 11.5304 16.9909C11.5304 16.7004 11.6458 16.4219 11.8512 16.2165C12.0566 16.0111 12.3352 15.8957 12.6257 15.8957ZM8.97491 12.2449C9.19152 12.2449 9.40327 12.3091 9.58338 12.4295C9.76349 12.5498 9.90387 12.7209 9.98677 12.921C10.0697 13.1211 10.0914 13.3414 10.0491 13.5538C10.0068 13.7663 9.90252 13.9614 9.74935 14.1146C9.59618 14.2678 9.40103 14.3721 9.18858 14.4143C8.97612 14.4566 8.75591 14.4349 8.55578 14.352C8.35565 14.2691 8.1846 14.1287 8.06425 13.9486C7.94391 13.7685 7.87967 13.5568 7.87967 13.3401C7.87967 13.0497 7.99506 12.7711 8.20046 12.5657C8.40586 12.3603 8.68443 12.2449 8.97491 12.2449ZM8.97491 15.8957C9.19152 15.8957 9.40327 15.9599 9.58338 16.0803C9.76349 16.2006 9.90387 16.3717 9.98677 16.5718C10.0697 16.7719 10.0914 16.9921 10.0491 17.2046C10.0068 17.417 9.90252 17.6122 9.74935 17.7654C9.59618 17.9185 9.40103 18.0228 9.18858 18.0651C8.97612 18.1074 8.75591 18.0857 8.55578 18.0028C8.35565 17.9199 8.1846 17.7795 8.06425 17.5994C7.94391 17.4193 7.87967 17.2075 7.87967 16.9909C7.87967 16.7004 7.99506 16.4219 8.20046 16.2165C8.40586 16.0111 8.68443 15.8957 8.97491 15.8957ZM5.32413 12.2449C5.54075 12.2449 5.7525 12.3091 5.93261 12.4295C6.11272 12.5498 6.2531 12.7209 6.33599 12.921C6.41889 13.1211 6.44058 13.3414 6.39832 13.5538C6.35606 13.7663 6.25175 13.9614 6.09858 14.1146C5.94541 14.2678 5.75026 14.3721 5.5378 14.4143C5.32535 14.4566 5.10513 14.4349 4.905 14.352C4.70488 14.2691 4.53383 14.1287 4.41348 13.9486C4.29313 13.7685 4.2289 13.5568 4.2289 13.3401C4.2289 13.0497 4.34429 12.7711 4.54969 12.5657C4.75508 12.3603 5.03366 12.2449 5.32413 12.2449ZM5.32413 15.8957C5.54075 15.8957 5.7525 15.9599 5.93261 16.0803C6.11272 16.2006 6.2531 16.3717 6.33599 16.5718C6.41889 16.7719 6.44058 16.9921 6.39832 17.2046C6.35606 17.417 6.25175 17.6122 6.09858 17.7654C5.94541 17.9185 5.75026 18.0228 5.5378 18.0651C5.32535 18.1074 5.10513 18.0857 4.905 18.0028C4.70488 17.9199 4.53383 17.7795 4.41348 17.5994C4.29313 17.4193 4.2289 17.2075 4.2289 16.9909C4.2289 16.7004 4.34429 16.4219 4.54969 16.2165C4.75508 16.0111 5.03366 15.8957 5.32413 15.8957Z" fill="white" fill-opacity="0.9"/>
</svg>
