<svg width="22" height="22" viewBox="0 0 22 22" fill="none" xmlns="http://www.w3.org/2000/svg">
<g id="SVGRepo_iconCarrier">
<path id="Vector" d="M1 3.52246V18.4775C1 19.8892 2.11084 21 3.52246 21H18.4775C19.1685 21 19.8286 20.6694 20.2495 20.2495C20.7002 19.7988 21 19.228 21 18.4775V3.52246C21 2.11084 19.8892 1 18.4775 1H3.52246C2.77197 1 2.20117 1.30077 1.75049 1.75049C1.3296 2.17138 1 2.83155 1 3.52246ZM3.70312 5.50392C3.70312 4.54298 4.48436 3.70216 5.4453 3.70216C6.43603 3.70216 7.24706 4.54298 7.24706 5.50392C7.24706 6.49464 6.43603 7.27589 5.4453 7.27589C4.48436 7.27589 3.70312 6.49464 3.70312 5.50392ZM8.5376 17.8462V8.6875C8.5376 8.47706 8.74804 8.29736 8.89795 8.29736H11.4502C11.8106 8.29736 11.8106 8.71825 11.8106 8.98828C12.5313 8.26757 13.4624 8.08692 14.4233 8.08692C16.7661 8.08692 18.2671 9.19776 18.2671 11.6606V17.8472C18.2671 18.0576 18.0864 18.2373 17.9067 18.2373H15.2642C15.0537 18.2373 14.9038 18.0269 14.9038 17.8472V12.2612C14.9038 11.3301 14.6338 10.8198 13.5825 10.8198C12.2612 10.8198 11.9307 11.6904 11.9307 12.8618V17.8472C11.9307 18.0576 11.7202 18.2373 11.5098 18.2373H8.89699C8.74708 18.2373 8.53664 18.0269 8.53664 17.8472L8.5376 17.8462ZM3.7627 17.8462V8.6875C3.7627 8.47706 3.97314 8.29736 4.12305 8.29736H6.73584C6.97607 8.29736 7.12598 8.44727 7.12598 8.6875V17.8462C7.12598 18.0566 6.94532 18.2363 6.73584 18.2363H4.12305C3.94239 18.2363 3.7627 18.0259 3.7627 17.8462Z" fill="white" stroke="white"/>
</g>
</svg>
